<svg width="25" height="28" viewBox="0 0 25 28" fill="none" xmlns="http://www.w3.org/2000/svg">
<path d="M3.83458 13.2433C3.83458 12.4605 4.06652 11.7076 4.4976 11.0702C4.35597 10.613 4.28277 10.1339 4.28277 9.65912C4.28277 7.61159 5.57317 5.82785 7.4439 5.15817C7.61072 3.63156 8.58981 2.31787 9.96956 1.68906C9.26044 0.541251 8.14114 -0.131753 7.1093 0.0355472C6.36357 0.156745 5.7457 0.663399 5.38258 1.42813C4.72907 1.12775 4.04941 1.07785 3.4534 1.28745C2.80844 1.51464 2.30749 2.00038 2.00473 2.69192C1.60311 3.60779 1.60264 4.7865 1.99095 5.90722C1.46766 6.26654 1.0765 6.79458 0.847885 7.45665C0.463379 8.56834 0.591706 9.9096 1.1996 11.1382C1.26614 11.2722 1.33885 11.4053 1.41823 11.536C0.84741 11.9072 0.420128 12.4576 0.191041 13.1292C-0.173028 14.1948 -0.0119061 15.4505 0.633056 16.5731C0.929159 17.0888 1.32127 17.556 1.77802 17.94C1.62545 18.5788 1.74095 19.2808 2.11262 19.9163C2.63211 20.8027 3.56794 21.4039 4.56794 21.5051C5.9073 24.0222 7.52612 25.3065 9.84124 26.4191C7.09076 23.1677 5.56129 20.4747 5.47526 16.4139C4.46291 15.691 3.83458 14.5032 3.83458 13.2433Z" fill="#49E691"/>
<path d="M24.9991 9.53032C25.0371 7.67956 23.9501 6.01464 22.2657 5.29506C22.02 3.71568 20.7472 2.48137 19.1654 2.27224C19.1511 2.11492 19.1212 1.95808 19.076 1.80313C18.7971 0.850662 17.9572 0.133456 16.9872 0.0184372C16.3527 -0.0571331 15.7529 0.102087 15.2571 0.450472C14.8151 0.158171 14.3004 0.000376376 13.7728 0.000376376C12.414 0.000376376 11.2847 1.00418 11.0879 2.30931C9.53422 2.623 8.3693 4.00751 8.3693 5.62728C8.3693 5.71426 8.3731 5.80123 8.37975 5.88964C6.57842 6.21378 5.23336 7.7789 5.23336 9.6596C5.23336 10.2033 5.35076 10.7423 5.57604 11.238C5.06987 11.7794 4.78564 12.4918 4.78564 13.2437C4.78564 14.3673 5.43108 15.3863 6.423 15.8768C6.37928 20.1843 7.94819 22.7993 11.009 26.3231L11.1816 26.5194L11.2129 26.555C11.6768 27.0755 12.3446 27.3616 13.0941 27.3616C13.2239 27.3616 13.3517 27.3507 13.4777 27.3345L13.3151 27.0189C12.2937 24.5897 11.6668 22.4329 11.317 20.5156C9.99905 20.1097 9.42918 19.0565 9.40399 19.008C9.28137 18.776 9.3712 18.488 9.60314 18.3659C9.83365 18.2437 10.1202 18.3321 10.2443 18.5626C10.2619 18.5954 10.5385 19.0821 11.1435 19.4139C10.9781 18.1701 10.9301 17.0341 10.9781 16.0104C10.9724 15.9586 10.9748 15.9077 10.9867 15.8554C11.0694 14.392 11.3365 13.1534 11.6892 12.1154C10.0879 11.1606 9.89021 9.38299 10.028 8.52034C10.0694 8.26131 10.3137 8.08213 10.5722 8.12585C10.8313 8.1672 11.0076 8.41008 10.9672 8.66863C10.9553 8.74515 10.7419 10.3217 12.0385 11.2086C12.1031 11.0588 12.1683 10.9101 12.2357 10.7708C13.4857 8.19097 15.2723 6.90722 15.9639 6.48374C15.9625 5.53175 16.5865 4.70475 16.616 4.66625C16.7752 4.4576 17.0746 4.41863 17.2818 4.57737C17.49 4.73659 17.5299 5.0346 17.3712 5.24277C17.2652 5.38346 17.057 5.73374 16.9639 6.1192C18.0585 5.99515 19.1269 6.61302 19.1811 6.64534C19.4078 6.7789 19.4824 7.07025 19.3493 7.29601C19.2605 7.4462 19.1017 7.52985 18.9396 7.52985C18.8574 7.52985 18.7747 7.50893 18.6991 7.46426C18.3679 7.27082 17.3593 6.84353 16.6683 7.17433C16.548 7.23564 15.7391 7.67101 14.8184 8.63156C16.7039 8.4942 18.0152 9.05409 18.0813 9.0826C18.3213 9.18859 18.4306 9.46901 18.3256 9.70903C18.2472 9.88679 18.0727 9.99325 17.8897 9.99325C17.8265 9.99325 17.7619 9.98089 17.7001 9.95333C17.6645 9.93812 16.0566 9.27177 13.9254 9.71521C13.4986 10.3155 13.0879 11.0351 12.7476 11.8925C12.7467 11.9552 12.7338 12.0189 12.7063 12.0798C12.6882 12.1202 12.664 12.1553 12.6374 12.1876C12.3669 12.9286 12.1488 13.7618 12.0176 14.7029C13.0922 14.0289 14.4477 13.9994 14.5252 13.9985C14.5271 13.9985 14.529 13.9985 14.5309 13.9985C14.7904 13.9985 15.0019 14.2067 15.0057 14.4671C15.0095 14.7295 14.7994 14.9448 14.5375 14.9491C14.5176 14.9495 12.5618 14.9952 11.8964 16.1297C11.8498 17.2889 11.9301 18.5831 12.1773 20.0232C12.1797 20.0341 12.1811 20.0451 12.1825 20.0565C12.5152 21.9761 13.1407 24.1487 14.1773 26.6149L14.4035 27.0512C14.7524 26.8754 15.0528 26.632 15.2671 26.3326C15.625 25.8326 15.7096 25.2261 15.5043 24.6249C14.645 22.1035 14.6716 20.1796 15.5832 18.9058C16.7647 17.2542 19.2258 17.0075 20.587 17.0075C21.288 17.0075 21.7695 17.0722 21.7742 17.0731L22.2628 17.1396L22.3118 16.6491C22.3184 16.5845 22.4587 15.0531 21.5651 14.0127C21.5133 13.9524 21.4587 13.8953 21.4026 13.8407C21.6549 13.7841 21.9045 13.7038 22.1497 13.6002C23.8436 12.8858 24.9625 11.2879 24.9991 9.53032Z" fill="#49E691"/>
</svg>
